#!OML:ASF F:\VICON\USERDATA\Patient Classification 1\PLAYGROUND\JustinFriday\JustinFriday.ASF
:FULLY-SPECIFIED
:DEGREES
3627
root 13.7054 24.7417 47.579 -713.096 -163.622 4.86202
lowerback 25.4597 -19.0143 -1.37774
upperback 3.22641 -25.6435 0.335433
thorax -8.68601 -12.3416 8.98411
lowerneck 6.65509 13.5551 -34.504
upperneck 26.4665 21.13 5.876
head 4.27017 8.83976 6.77487
rclavicle -2.01965e-013 2.54444e-014
rhumerus 18.2434 21.9604 -90.0101
rradius 84.2654
rwrist -19.5184
rhand -51.4432 -33.5596
rfingers 7.12502
rthumb -23.9737 -422.083
lclavicle -2.01965e-013 2.54444e-014
lhumerus -31.7499 18.2042 60.559
lradius 96.4583
lwrist -35.7969
lhand -39.5464 -28.5977
lfingers 7.12502
lthumb -12.5305 1.00662
rfemur -6.26859 -1.43926 25.7983
rtibia 8.3938
rfoot 10.189 -21.3173
rtoes 21.2107
lfemur -53.4592 9.77493 -15.8408
ltibia 76.0765
lfoot -35.9663 -24.7416
ltoes 10.7646
3628
root 13.7583 24.6384 47.6443 -713.365 -163.472 4.70216
lowerback 25.8263 -19.012 -1.63355
upperback 3.31408 -25.7357 0.202438
thorax -8.71328 -12.3801 9.07562
lowerneck 6.68059 13.6786 -34.5861
upperneck 26.4553 21.2745 5.94611
head 4.22859 8.91152 6.78288
rclavicle -9.22361e-014 6.36111e-015
rhumerus 18.8957 21.807 -90.2413
rradius 84.3389
rwrist -19.2419
rhand -51.3633 -33.9281
rfingers 7.12502
rthumb -23.8971 -422.461
lclavicle -9.22361e-014 6.36111e-015
lhumerus -30.2477 17.1837 60.3817
lradius 94.5979
lwrist -36.2865
lhand -37.9096 -26.363
lfingers 7.12502
lthumb -10.9521 3.33136
rfemur -6.26476 -1.02592 25.7609
rtibia 8.79773
rfoot 8.74584 -21.6023
rtoes 25.8384
lfemur -54.0881 9.74699 -15.9375
ltibia 77.0555
lfoot -36.0993 -24.8631
ltoes 11.0905
3629
root 13.8001 24.5437 47.6947 -713.331 -163.025 4.29518
lowerback 25.4356 -19.3495 -1.6926
upperback 3.40706 -26.2162 -0.0677453
thorax -8.47408 -12.6365 8.81023
lowerneck 6.68006 13.9481 -34.7884
upperneck 26.305 21.6041 5.91163
head 4.12911 9.06744 6.73924
rclavicle -4.77083e-015 3.81667e-014
rhumerus 19.4771 21.9759 -90.7969
rradius 84.3732
rwrist -18.7184
rhand -51.145 -34.6466
rfingers 7.12502
rthumb -23.6877 -423.207
lclavicle -4.77083e-015 3.81667e-014
lhumerus -29.1306 16.5713 59.8133
lradius 92.8799
lwrist -36.4109
lhand -35.7579 -24.2015
lfingers 7.12502
lthumb -8.87615 5.59185
rfemur -6.80646 -0.913136 25.4976
rtibia 10.0854
rfoot 6.36351 -21.3365
rtoes 29.9056
lfemur -54.8635 9.56246 -16.3528
ltibia 77.9175
lfoot -35.9123 -25.542
ltoes 12.3092
3630
root 13.7909 24.468 47.772 -712.747 -161.472 3.20774
lowerback 24.7232 -20.2072 -1.05134
upperback 3.25849 -27.1622 -0.396488
thorax -8.63505 -13.072 8.34156
lowerneck 6.73213 14.0481 -34.9609
upperneck 26.2572 21.7063 5.93123
head 4.08411 9.11219 6.74137
rclavicle -9.78021e-014 0
rhumerus 20.14 21.9751 -91.1048
rradius 84.3683
rwrist -18.3294
rhand -50.9472 -34.6449
rfingers 7.12502
rthumb -23.498 -423.23
lclavicle -9.78021e-014 0
lhumerus -27.8452 15.9093 59.5134
lradius 91.2108
lwrist -36.5345
lhand -33.8064 -21.7145
lfingers 7.12502
lthumb -6.99273 8.14999
rfemur -7.81896 -4.83462 24.5262
rtibia 11.5633
rfoot 5.92397 -17.6614
rtoes 26.6536
lfemur -55.924 7.74664 -17.795
ltibia 78.6428
lfoot -35.6625 -25.8201
ltoes 13.6398
3631
root 13.8228 24.3799 47.8569 -713.014 -160.822 3.00914
lowerback 25.1899 -20.4648 -0.850149
upperback 3.27903 -27.454 -0.517504
thorax -8.95366 -13.1783 8.41457
lowerneck 6.72145 14.0083 -34.8809
upperneck 26.3105 21.7115 5.83485
head 4.1233 9.11071 6.71295
rclavicle 1.50281e-013 -4.45278e-014
rhumerus 20.7866 21.9198 -91.37
rradius 84.3377
rwrist -17.9875
rhand -50.997 -34.7325
rfingers 7.12502
rthumb -23.5458 -423.311
lclavicle 1.50281e-013 -4.45278e-014
lhumerus -26.2676 15.353 59.2857
lradius 89.4599
lwrist -36.6855
lhand -31.4553 -19.6463
lfingers 7.12502
lthumb -4.72274 10.2811
rfemur -7.93069 -5.88801 24.4834
rtibia 12.3189
rfoot 4.81107 -16.3204
rtoes 28.5134
lfemur -56.5076 6.99504 -18.0327
ltibia 79.5265
lfoot -35.5551 -25.6929
ltoes 14.6014
3632
root 13.9115 24.2746 47.9058 -713.74 -161.718 3.85713
lowerback 25.6503 -20.014 -1.24977
upperback 3.53567 -26.9975 -0.439603
thorax -8.71557 -12.9934 8.58185
lowerneck 6.40946 13.9524 -34.7328
upperneck 26.6777 21.9036 5.7148
head 4.28926 9.16627 6.70689
rclavicle -3.81667e-014 6.67916e-014
rhumerus 21.3632 22.108 -91.8218
rradius 84.3026
rwrist -17.7341
rhand -51.286 -35.6764
rfingers 7.12502
rthumb -23.8229 -424.219
lclavicle -3.81667e-014 6.67916e-014
lhumerus -24.7253 15.1247 58.7867
lradius 87.6057
lwrist -36.6614
lhand -28.7034 -18.0271
lfingers 7.12502
lthumb -2.06521 11.9426
rfemur -7.81748 -4.12876 25.6593
rtibia 13.1228
rfoot 2.60858 -16.801
rtoes 24.7205
lfemur -56.9408 8.59461 -16.9219
ltibia 80.6124
lfoot -35.4535 -26.3455
ltoes 15.6167
